<?xml version="1.0" encoding="UTF-8"?>
<svg width="154px" height="46px" viewBox="0 0 154 46" version="1.1" xmlns="http://www.w3.org/2000/svg" xmlns:xlink="http://www.w3.org/1999/xlink">
    <title>Fill 1</title>
    <g id="Symbols" stroke="none" stroke-width="1" fill="none" fill-rule="evenodd">
        <g id="HEADER-MENU-transparant" transform="translate(-156.000000, -47.000000)" fill="#FFFFFF">
            <path d="M203.887,64.923 L203.887,64.923 L202.773,73.127 L198.851,73.127 L203.887,64.923 Z M201.799,51.384 L215.763,51.384 L212.788,88.182 L200.728,88.182 L201.404,83.224 L192.655,83.224 L189.613,88.182 L156,88.182 L169.445,51.384 L180.98,51.384 L171.853,76.75 L182.109,76.75 L178.728,85.702 L201.799,51.384 Z M259.604,51.384 L282.647,51.384 L278.929,61.724 L267.9,61.724 L266.961,64.379 L277.846,64.379 L274.283,74.644 L262.733,74.644 L261.796,77.222 L273.158,77.222 L269.41,88.182 L245.355,88.182 L259.604,51.384 Z M293.854,60.941 L293.854,60.941 L294.945,60.935 C295.821,60.935 296.389,61.207 296.67,61.774 C296.733,61.894 296.837,62.147 296.837,62.489 C296.837,62.951 296.645,63.575 295.915,64.262 L290.924,69.095 L293.854,60.941 Z M285.665,51.377 L285.665,51.377 L272.652,88.335 L284.01,88.335 L288.362,76.209 L293.584,88.335 L305.365,88.335 L299.224,74.23 L305.346,68.335 C308.185,65.456 309.07,62.747 309.07,60.486 C309.07,58.528 308.41,56.91 307.775,55.81 L307.775,55.809 C305.992,52.742 302.647,51.377 296.926,51.377 L285.665,51.377 Z M226.879,47 L220.145,57.492 L236.86,57.492 L214.508,80.196 L213.832,89.169 L205.425,89.169 L202.182,92.316 L241.985,92.316 L245.768,81.447 L229.607,81.447 L262.107,47 L226.879,47 Z" id="Fill-1"></path>
        </g>
    </g>
</svg>